# xmcd CD database file
#
# Track frame offsets:
#	150
#	21151
#	37826
#	57560
#
# Disc length: 1004 seconds
#
# Revision: 1
# Processed by: cddbd v1.5.2PL0 Copyright (c) Steve Scherf et al.
# Submitted via: CDex 1.70beta2
#
DISCID=2b03ea04
DTITLE=015B - cluster vol.1
DYEAR=2007
DGENRE=Ballad
TTITLE0=받은만큼만 해주기 (feat 김형중)
TTITLE1=너 말이야 Remix (feat Verbal Jint)
TTITLE2=r we happy? (feat 오현란,치열)
TTITLE3=잠시 길을 잃다 (feat 치열)
EXTD=Cashflow420.com YEAR: 2007
EXTT0=
EXTT1=
EXTT2=
EXTT3=
PLAYORDER=
